<svg id="Capa_1" enable-background="new 0 0 512 512" height="512" viewBox="0 0 512 512" width="512" xmlns="http://www.w3.org/2000/svg"><g><path d="m436 0h-180-180c-8.291 0-15 6.709-15 15v182c0 8.291 6.709 15 15 15h45v45c0 6.064 3.647 11.543 9.258 13.857 5.625 2.329 12.041 1.055 16.348-3.252l55.605-55.605h53.789 53.789l55.605 55.605c4.33 4.33 10.82 5.559 16.348 3.252 5.61-2.314 9.258-7.793 9.258-13.857v-45h45c8.291 0 15-6.709 15-15v-182c0-8.291-6.709-15-15-15z" fill="#fed843"/><path d="m365.395 267.605c4.33 4.33 10.82 5.559 16.348 3.252 5.61-2.314 9.258-7.793 9.258-13.857v-45h45c8.291 0 15-6.709 15-15v-182c0-8.291-6.709-15-15-15h-180.001v212h53.789z" fill="#fabe2c"/><circle cx="136" cy="347" fill="#ffe1ba" r="45"/><path d="m181 347c0-24.814-20.186-45-45-45v90c24.814 0 45-20.186 45-45z" fill="#ffbfab"/><path d="m136 392c-41.353 0-75 33.647-75 75 0 8.291 6.709 15 15 15h60 60c8.291 0 15-6.709 15-15 0-41.353-33.647-75-75-75z" fill="#ff641a"/><path d="m211 467c0-41.353-33.647-75-75-75v90h60c8.291 0 15-6.709 15-15z" fill="#f03800"/><circle cx="376" cy="347" fill="#ffe1ba" r="45"/><path d="m421 347c0-24.814-20.186-45-45-45v90c24.814 0 45-20.186 45-45z" fill="#ffbfab"/><path d="m376 392c-41.353 0-75 33.647-75 75 0 8.291 6.709 15 15 15h60 60c8.291 0 15-6.709 15-15 0-41.353-33.647-75-75-75z" fill="#ff641a"/><path d="m451 467c0-41.353-33.647-75-75-75v90h60c8.291 0 15-6.709 15-15z" fill="#f03800"/><circle cx="165.999" cy="105.999" fill="#613d5c" r="15"/><circle cx="345.999" cy="105.999" fill="#4b2746" r="15"/><circle cx="256" cy="377" fill="#ffe1ba" r="45"/><path d="m301 377c0-24.814-20.186-45-45-45v90c24.814 0 45-20.186 45-45z" fill="#ffbfab"/><path d="m256 422c-41.353 0-75 33.647-75 75 0 8.291 6.709 15 15 15h60 60c8.291 0 15-6.709 15-15 0-41.353-33.647-75-75-75z" fill="#979fef"/><path d="m331 497c0-41.353-33.647-75-75-75v90h60c8.291 0 15-6.709 15-15z" fill="#6b77e8"/><circle cx="256" cy="105.998" fill="#613d5c" r="15"/><path d="m271 105.998c0-8.284-6.716-15-15-15v30c8.284 0 15-6.716 15-15z" fill="#4b2746"/></g></svg>