<svg id="Capa_1" enable-background="new 0 0 512 512" height="512" viewBox="0 0 512 512" width="512" xmlns="http://www.w3.org/2000/svg"><g><g><path d="m108.046 348.29 34.347-59.491h-86.014l34.347 59.491c3.849 6.667 13.471 6.667 17.32 0z" fill="#ffe07d"/></g><g><path d="m108.046 348.29 34.347-59.491h-86.014l34.347 59.491c3.849 6.667 13.471 6.667 17.32 0z" fill="#ffd064"/></g><g><path d="m207.17 305.239h-107.17c-55.228 0-100-44.772-100-100v-39.144c0-55.228 44.772-100 100-100h107.17c55.228 0 100 44.772 100 100v39.144c0 55.228-44.772 100-100 100z" fill="#ffe07d"/></g><path d="m263.917 83.753c11.133 16.123 17.658 35.672 17.658 56.747v39.144c0 55.229-44.772 100-100 100h-107.169c-21.076 0-40.624-6.526-56.748-17.658 18.041 26.127 48.189 43.253 82.342 43.253h107.17c55.229 0 100-44.772 100-100v-39.144c0-34.153-17.125-64.301-43.253-82.342z" fill="#ffd064"/><g><circle cx="106.558" cy="185.667" fill="#ddeafb" r="67.789"/></g><g><circle cx="106.558" cy="178.773" fill="#524798" r="27.786"/></g><g><path d="m122.538 202.65h-31.96c-16.749 0-31.253 9.574-38.366 23.542 12.361 16.549 32.102 27.264 54.346 27.264s41.986-10.715 54.346-27.264c-7.113-13.968-21.617-23.542-38.366-23.542z" fill="#524798"/></g><g><path d="m403.954 440.905-34.347-59.491h86.015l-34.347 59.491c-3.85 6.667-13.472 6.667-17.321 0z" fill="#ffd064"/></g><g><path d="m412 397.087h-107.17c-55.228 0-100-44.772-100-100v-39.144c0-55.228 44.772-100 100-100h107.17c55.228 0 100 44.772 100 100v39.144c0 55.229-44.772 100-100 100z" fill="#ffd064"/></g><g><path d="m174.347 185.667c0 15.194-4.999 29.221-13.442 40.525-12.361 16.549-32.103 17.168-54.347 17.168s-41.987-.619-54.347-17.168c-8.443-11.304-13.442-25.331-13.442-40.525 0-37.439 30.35-67.789 67.789-67.789s67.789 30.35 67.789 67.789z" fill="#ddeafb"/></g><g><circle cx="106.558" cy="178.773" fill="#524798" r="27.786"/></g><g><path d="m122.538 202.65h-31.96c-16.749 0-31.253 9.574-38.366 23.542 12.361 16.549 32.102 27.264 54.346 27.264s41.986-10.715 54.346-27.264c-7.113-13.968-21.617-23.542-38.366-23.542z" fill="#524798"/></g><g><path d="m403.954 440.905-34.347-59.491h86.015l-34.347 59.491c-3.85 6.667-13.472 6.667-17.321 0z" fill="#ffc250"/></g><g><path d="m379.178 277.515c0 15.194-4.999 29.221-13.442 40.525-12.361 16.549-32.103 18.554-54.347 18.554s-41.987-2.004-54.347-18.554c-8.443-11.304-13.442-25.331-13.442-40.525 0-37.439 30.35-67.789 67.789-67.789s67.789 30.351 67.789 67.789z" fill="#ecf4ff"/></g><g><circle cx="311.389" cy="270.621" fill="#5e54ac" r="27.786"/></g><g><path d="m327.368 294.498h-31.96c-16.749 0-31.253 9.574-38.366 23.542 12.361 16.549 32.102 27.264 54.346 27.264s41.986-10.715 54.346-27.264c-7.112-13.968-21.616-23.542-38.366-23.542z" fill="#5e54ac"/></g><g><g><path d="m466.648 267.739h-54.788c-4.114 0-7.449-3.335-7.449-7.449s3.335-7.449 7.449-7.449h54.788c4.114 0 7.449 3.335 7.449 7.449s-3.335 7.449-7.449 7.449z" fill="#d56617"/></g><g><path d="m466.648 302.191h-54.788c-4.114 0-7.449-3.335-7.449-7.449s3.335-7.449 7.449-7.449h54.788c4.114 0 7.449 3.335 7.449 7.449s-3.335 7.449-7.449 7.449z" fill="#d56617"/></g></g><path d="m468.747 175.602c11.133 16.123 17.658 35.672 17.658 56.747v39.144c0 55.228-44.772 100-100 100h-107.17c-21.076 0-40.624-6.526-56.748-17.658 18.041 26.127 48.189 43.253 82.342 43.253h107.171c55.228 0 100-44.772 100-100v-39.144c0-34.153-17.125-64.302-43.253-82.342z" fill="#ffc250"/></g></svg>