<svg id="Icons" enable-background="new 0 0 64 64" height="512" viewBox="0 0 64 64" width="512" xmlns="http://www.w3.org/2000/svg"><g><g><path d="m29 42c-1.654 0-3-1.346-3-3v-5h-21c-.552 0-1 .448-1 1v18c0 .552.448 1 1 1h11v6l8-6h11c.552 0 1-.448 1-1v-11z" fill="#fab400"/></g><g><path d="m26 21c0-1.654 1.346-3 3-3h7v-13c0-.552-.448-1-1-1h-30c-.552 0-1 .448-1 1v18c0 .552.448 1 1 1h11v6l8-6h2z" fill="#fa6450"/></g><g><path d="m6 23v-18c0-.552.448-1 1-1h-2c-.552 0-1 .448-1 1v18c0 .552.448 1 1 1h2c-.552 0-1-.448-1-1z" fill="#dc4632"/></g><g><path d="m6 53v-18c0-.552.448-1 1-1h-2c-.552 0-1 .448-1 1v18c0 .552.448 1 1 1h2c-.552 0-1-.448-1-1z" fill="#dc9600"/></g><g><path d="m29 20h30c.552 0 1 .448 1 1v18c0 .552-.448 1-1 1h-11v6l-8-6h-11c-.552 0-1-.448-1-1v-18c0-.552.448-1 1-1z" fill="#3cc8b4"/></g><g><path d="m30 39v-18c0-.552.448-1 1-1h-2c-.552 0-1 .448-1 1v18c0 .552.448 1 1 1h2c-.552 0-1-.448-1-1z" fill="#1eaa96"/></g><g><path d="m34 24h22v2h-22z" fill="#f0f0f0"/></g><g><path d="m34 28h22v2h-22z" fill="#f0f0f0"/></g><g><path d="m34 32h12v2h-12z" fill="#f0f0f0"/></g><g><path d="m10 38h14v2h-14z" fill="#f0f0f0"/></g><g><path d="m10 42h22v2h-22z" fill="#f0f0f0"/></g><g><path d="m10 46h12v2h-12z" fill="#f0f0f0"/></g><g><path d="m10 8h22v2h-22z" fill="#f0f0f0"/></g><g><path d="m10 12h22v2h-22z" fill="#f0f0f0"/></g><g><path d="m10 16h12v2h-12z" fill="#f0f0f0"/></g></g></svg>